<?xml version="1.0" encoding="UTF-8" standalone="no"?>
<svg
   xmlns:dc="http://purl.org/dc/elements/1.1/"
   xmlns:cc="http://creativecommons.org/ns#"
   xmlns:rdf="http://www.w3.org/1999/02/22-rdf-syntax-ns#"
   xmlns:svg="http://www.w3.org/2000/svg"
   xmlns="http://www.w3.org/2000/svg"
   xmlns:sodipodi="http://sodipodi.sourceforge.net/DTD/sodipodi-0.dtd"
   xmlns:inkscape="http://www.inkscape.org/namespaces/inkscape"
   version="1.1"
   viewBox="0 0 48 48"
   id="svg21"
   sodipodi:docname="transport.svg"
   inkscape:version="0.92.4 5da689c313, 2019-01-14">
  <metadata
     id="metadata25">
    <rdf:RDF>
      <cc:Work
         rdf:about="">
        <dc:format>image/svg+xml</dc:format>
        <dc:type
           rdf:resource="http://purl.org/dc/dcmitype/StillImage" />
        <dc:title></dc:title>
      </cc:Work>
    </rdf:RDF>
  </metadata>
  <sodipodi:namedview
     pagecolor="#ffffff"
     bordercolor="#666666"
     borderopacity="1"
     objecttolerance="10"
     gridtolerance="10"
     guidetolerance="10"
     inkscape:pageopacity="0"
     inkscape:pageshadow="2"
     inkscape:window-width="1890"
     inkscape:window-height="2117"
     id="namedview23"
     showgrid="false"
     inkscape:pagecheckerboard="true"
     inkscape:zoom="13.906433"
     inkscape:cx="5.438242"
     inkscape:cy="37.79446"
     inkscape:window-x="3370"
     inkscape:window-y="23"
     inkscape:window-maximized="0"
     inkscape:current-layer="svg21" />
  <defs
     id="defs7">
    <mask
       id="mask-2"
       x="101"
       y="88"
       width="594"
       height="419"
       maskUnits="userSpaceOnUse">
      <g
         class="st3"
         filter="url(#Adobe_OpacityMaskFilter)"
         id="g4">
        <path
           class="st0"
           d="M 76,64.4 C 76,17.8 282.9,0 397.5,0 510.6,0 719,17.8 719,64.4 V 719 H 76 Z"
           fill="#fff"
           id="path2" />
      </g>
    </mask>
  </defs>
  <style
     type="text/css"
     id="style9">.st0{fill:#FFFFFF;}.st1{fill:#0061DC;}.st2{fill:#007AFF;}.st3{filter:url(#Adobe_OpacityMaskFilter);}.st4{opacity:0.9807;mask:url(#mask-2);fill:#FFFFFF;enable-background:new    ;}.st5{filter:url(#filter-4);}.st6{fill:#F3F3F3;}.st7{fill:none;stroke:#FFFFFF;stroke-width:5;}.st8{filter:url(#filter-7);}</style>
  <rect
     x="8.143"
     y="39.216"
     width="7.9408"
     height="4.7842"
     fill="#fff"
     stroke-width=".049322"
     id="rect11" />
  <rect
     x="31.916"
     y="39.216"
     width="7.9408"
     height="4.7842"
     fill="#fff"
     stroke-width=".049322"
     id="rect13" />
  <path
     class="st1"
     d="m5.6276 10.658h1.233v8.1381c-1.3613 0-2.4661-1.1295-2.4661-2.5253v-4.3502c0-0.69544 0.5524-1.2626 1.233-1.2626z"
     fill="#fff"
     stroke-width=".049322"
     id="path15"
     style="fill-opacity:1;fill:#ffffff" />
  <path
     class="st1"
     d="m42.372 10.658h-1.233v8.1381c1.3613 0 2.4661-1.1295 2.4661-2.5253v-4.3502c0-0.69544-0.5524-1.2626-1.233-1.2626z"
     fill="#fff"
     stroke-width=".049322"
     id="path17"
     style="fill:#ffffff;fill-opacity:1" />
  <path
     d="m24 4c-5.6523 0-15.857 0.87795-15.857 3.1763v32.286h31.714v-32.286c0-2.2984-10.279-3.1763-15.857-3.1763zm0.02466 4.3403c6.3625 0 11.063 0.43892 14.106 1.3169 0.32059 0.09371 0.54254 0.38968 0.54254 0.73001v17.854c0 0.41924-0.33537 0.75957-0.74474 0.75957h-27.808c-0.40937 0-0.74474-0.34034-0.74474-0.75957v-17.854c0-0.33539 0.22195-0.63629 0.54254-0.73001 3.0432-0.87793 7.7435-1.3169 14.106-1.3169zm-10.703 23.354a2.4908 2.5647 0 0 1 2.4908 2.5647 2.4908 2.5647 0 0 1-2.4908 2.5647 2.4908 2.5647 0 0 1-2.4908-2.5647 2.4908 2.5647 0 0 1 2.4908-2.5647zm21.406 0a2.4908 2.5647 0 0 1 2.4908 2.5647 2.4908 2.5647 0 0 1-2.4908 2.5647 2.4908 2.5647 0 0 1-2.4908-2.5647 2.4908 2.5647 0 0 1 2.4908-2.5647z"
     fill="#fff"
     stroke-width=".049322"
     id="path19" />
</svg>
