<?xml version="1.0" encoding="UTF-8" standalone="no"?>
<svg
   xmlns:dc="http://purl.org/dc/elements/1.1/"
   xmlns:cc="http://creativecommons.org/ns#"
   xmlns:rdf="http://www.w3.org/1999/02/22-rdf-syntax-ns#"
   xmlns:svg="http://www.w3.org/2000/svg"
   xmlns="http://www.w3.org/2000/svg"
   xmlns:xlink="http://www.w3.org/1999/xlink"
   xmlns:sodipodi="http://sodipodi.sourceforge.net/DTD/sodipodi-0.dtd"
   xmlns:inkscape="http://www.inkscape.org/namespaces/inkscape"
   width="48"
   height="48"
   viewBox="0 0 48.000001 48.000001"
   version="1.1"
   id="svg18"
   sodipodi:docname="yandexeda.svg"
   inkscape:version="0.92.4 5da689c313, 2019-01-14">
  <metadata
     id="metadata22">
    <rdf:RDF>
      <cc:Work
         rdf:about="">
        <dc:format>image/svg+xml</dc:format>
        <dc:type
           rdf:resource="http://purl.org/dc/dcmitype/StillImage" />
        <dc:title></dc:title>
      </cc:Work>
    </rdf:RDF>
  </metadata>
  <sodipodi:namedview
     pagecolor="#ffffff"
     bordercolor="#666666"
     borderopacity="1"
     objecttolerance="10"
     gridtolerance="10"
     guidetolerance="10"
     inkscape:pageopacity="0"
     inkscape:pageshadow="2"
     inkscape:window-width="1890"
     inkscape:window-height="2117"
     id="namedview20"
     showgrid="false"
     inkscape:pagecheckerboard="true"
     inkscape:zoom="10.147792"
     inkscape:cx="22.507881"
     inkscape:cy="48.176425"
     inkscape:window-x="3370"
     inkscape:window-y="23"
     inkscape:window-maximized="0"
     inkscape:current-layer="svg18" />
  <defs
     id="defs3">
    <path
       id="a"
       d="M 0.2,0.127 H 26.288 V 27.918 H 0.2 Z"
       inkscape:connector-curvature="0" />
    <mask
       fill="#fff"
       id="b">
      <use
         id="use7"
         xlink:href="#a"
         x="0"
         y="0"
         width="100%"
         height="100%" />
    </mask>
  </defs>
  <path
     d="m 29.725184,19.678276 a 2.363,2.363 0 0 0 -0.0935,-0.2448 4.5577,4.5577 0 0 0 -0.3672,-0.748 4.7447,4.7447 0 0 0 -0.935,-1.054 5.1646,5.1646 0 0 0 -1.275,-0.7599 5.61,5.61 0 0 0 -1.513,-0.3723 6.0656,6.0656 0 0 0 -1.6354,0.0765 6.273,6.273 0 0 0 -1.6167,0.5508 6.545,6.545 0 0 0 -1.4569,1.0183 6.7184,6.7184 0 0 0 -1.1577,1.4348 6.9343,6.9343 0 0 0 -0.9588,3.7434 c 0.0238,0.697 0.1479,1.4025 0.357,2.0417 0.2244,0.6919 0.5525,1.3651 0.9452,1.9499 0.425,0.629 0.9486,1.2155 1.5096,1.6915 0.6052,0.5151 1.2954,0.9588 1.9941,1.2835 a 9.5557,9.5557 0 0 0 4.9249,0.8534 10.2935,10.2935 0 0 0 5.0065,-1.8496 10.6794,10.6794 0 0 0 2.0502,-1.9074 10.795,10.795 0 0 0 1.5045,-2.4412 10.9565,10.9565 0 0 0 0.8296,-5.848 11.4444,11.4444 0 0 0 -0.8228,-3.0039 11.9884,11.9884 0 0 0 -1.6524,-2.7625 12.597,12.597 0 0 0 -2.4055,-2.3052 13.1988,13.1988 0 0 0 -3.0209,-1.6541002 13.7428,13.7428 0 0 0 -3.451,-0.8466 14.212,14.212 0 0 0 -3.6465,0.0646 14.586,14.586 0 0 0 -9.554,5.7290002 14.6659,14.6659 0 0 0 -1.9006,3.4391 14.8172,14.8172 0 0 0 -0.9316,3.8879 15.1368,15.1368 0 0 0 0.1479,4.0783 c 0.2431,1.3889 0.6698,2.7285 1.2631,3.9831 a 16.1364,16.1364 0 0 0 2.3375,3.5989 16.8147,16.8147 0 0 0 3.2895,2.941 c 1.2614,0.8602 2.6231,1.547 4.0443,2.0468 a 18.139,18.139 0 0 0 4.5407,0.969 c 1.598,0.1292 3.1909,0.0544 4.7362,-0.221 a 18.7612,18.7612 0 0 0 8.7295,-4.0443 18.7714,18.7714 0 0 0 5.6627,-8.058 c 0.578,-1.6116 0.935,-3.2776 1.0625,-4.9504 a 19.0825,19.0825 0 0 0 -0.3043,-5.1374 19.5704,19.5704 0 0 0 -1.6949,-4.9674 20.264,20.264 0 0 0 -3.0158,-4.4421002 21.012,21.012 0 0 0 -4.1667,-3.5836 21.8229,21.8229 0 0 0 -5.0643,-2.4497 22.4689,22.4689 0 0 0 -5.6338,-1.09820004 23.0078,23.0078 0 0 0 -20.4510002,9.97220024 22.7919,22.7919 0 0 0 -3.9219,11.4342 c -0.1258,2.091 0.0272,4.1752 0.4556,6.1982 0.442,2.0791 1.156,4.0834 2.1233,5.9534 a 24.412,24.412 0 0 0 3.6907,5.287 c 1.496,1.6286 3.1926002,3.0515 5.0456002,4.2313 a 26.1137,26.1137 0 0 0 6.0826,2.8492 26.8277,26.8277 0 0 0 8.177,1.2716 27.3462,27.3462 0 0 0 17.9588,-6.7456 l -2.8186,-3.0413 a 22.9959,22.9959 0 0 1 -10.5502,5.2275 22.899,22.899 0 0 1 -5.814,0.4335 22.4842,22.4842 0 0 1 -5.644,-1.037 21.8416,21.8416 0 0 1 -5.0881,-2.3851 21.0494,21.0494 0 0 1 -4.2092,-3.5309 20.2776,20.2776 0 0 1 -3.0719002,-4.4013 c -0.8007,-1.5504 -1.394,-3.213 -1.7595,-4.9402 a 19.0978,19.0978 0 0 1 -0.3757,-5.1272 18.7493,18.7493 0 0 1 15.1725002,-17.2652002 18.547,18.547 0 0 1 4.7243,-0.2992 c 1.5351,0.0986 3.0651,0.3978 4.5492,0.8891 1.428,0.4726 2.7999,1.1373 4.0766,1.972 a 16.8504,16.8504 0 0 1 3.3388,2.8730002 16.1704,16.1704 0 0 1 2.4055,3.5462 c 0.6205,1.2376 1.0744,2.567 1.3464,3.9474 0.2635,1.326 0.3434,2.6911 0.238,4.0647 a 14.688,14.688 0 0 1 -5.2632,10.1966 14.5775,14.5775 0 0 1 -6.749,3.128 14.212,14.212 0 0 1 -3.6312,0.1683 13.8227,13.8227 0 0 1 -3.4612,-0.7395 13.2753,13.2753 0 0 1 -3.06,-1.5504 12.6616,12.6616 0 0 1 -2.4735,-2.2151 11.9884,11.9884 0 0 1 -1.7442,-2.6894 11.5056,11.5056 0 0 1 -0.935,-2.9529 11.0959,11.0959 0 0 1 -0.1088,-3.0005 10.642,10.642 0 0 1 2.057,-5.3227 10.4567,10.4567 0 0 1 4.2551,-3.3626 10.2,10.2 0 0 1 2.5245,-0.714 9.6254,9.6254 0 0 1 4.9045,0.5406 c 0.7089,0.2737 1.4178,0.663 2.0502,1.1254 0.5848,0.425 1.1424,0.9605 1.6099,1.5436 0.4318,0.5389 0.8075,1.1713 1.088,1.8275 0.2601,0.6018 0.4437,1.2784 0.5355,1.955 a 7.14,7.14 0 0 1 -0.0153,1.9312 6.6674,6.6674 0 0 1 -1.4416,3.2793 6.239,6.239 0 0 1 -2.6673,1.8972 c -0.4573,0.17 -0.9724,0.2839 -1.4892,0.3298 a 5.559,5.559 0 0 1 -1.4348,-0.0629 5.2139,5.2139 0 0 1 -1.2784,-0.4046 4.777,4.777 0 0 1 -1.0438,-0.6749 4.2925,4.2925 0 0 1 -0.7582,-0.8551 3.5479,3.5479 0 0 1 -0.6137,-1.8785 3.1875,3.1875 0 0 1 0.0969,-0.8551 c 0.0578,-0.2244 0.17,-0.4896 0.3009,-0.7123 a 2.618,2.618 0 0 1 0.4335,-0.5304 c 0.1258,-0.119 0.3179,-0.2499 0.493,-0.34 a 2.006,2.006 0 0 1 0.4216,-0.1462 c 0.0969,1.3056 1.2138,2.3375 2.5806,2.3375 1.4297,0 2.5908,-1.1288 2.5908,-2.5194 0,-0.255 -0.0408,-0.5032 -0.1139,-0.7344 l -0.0017,-0.0102"
     id="path10"
     inkscape:connector-curvature="0"
     style="fill:#f7fffc;fill-opacity:1;fill-rule:nonzero;stroke-width:1.70000005" />
</svg>
